<mxfile host="Electron" modified="2024-04-17T08:59:31.837Z" agent="Mozilla/5.0 (X11; Linux x86_64) AppleWebKit/537.36 (KHTML, like Gecko) draw.io/24.1.0 Chrome/120.0.6099.109 Electron/28.1.0 Safari/537.36" etag="u-DNAL38_1eMsYT83YSn" version="24.1.0" type="device" pages="4">
  <diagram name="Page-1" id="yeBoTU2P19gPhXbxnNMf">
    <mxGraphModel dx="1364" dy="963" grid="1" gridSize="10" guides="1" tooltips="1" connect="1" arrows="1" fold="1" page="1" pageScale="1" pageWidth="850" pageHeight="1100" math="0" shadow="0">
      <root>
        <mxCell id="0" />
        <mxCell id="1" parent="0" />
        <mxCell id="xaEFCEjVFy6XeMojN9UT-3" value="" style="edgeStyle=orthogonalEdgeStyle;rounded=0;orthogonalLoop=1;jettySize=auto;html=1;" parent="1" source="xaEFCEjVFy6XeMojN9UT-1" target="xaEFCEjVFy6XeMojN9UT-2" edge="1">
          <mxGeometry relative="1" as="geometry" />
        </mxCell>
        <mxCell id="xaEFCEjVFy6XeMojN9UT-1" value="Paybill" style="rounded=0;whiteSpace=wrap;html=1;" parent="1" vertex="1">
          <mxGeometry x="80" y="340" width="120" height="60" as="geometry" />
        </mxCell>
        <mxCell id="xaEFCEjVFy6XeMojN9UT-5" value="" style="edgeStyle=orthogonalEdgeStyle;rounded=0;orthogonalLoop=1;jettySize=auto;html=1;" parent="1" source="xaEFCEjVFy6XeMojN9UT-2" target="xaEFCEjVFy6XeMojN9UT-4" edge="1">
          <mxGeometry relative="1" as="geometry" />
        </mxCell>
        <mxCell id="xaEFCEjVFy6XeMojN9UT-2" value="STK" style="rounded=0;whiteSpace=wrap;html=1;" parent="1" vertex="1">
          <mxGeometry x="280" y="340" width="120" height="60" as="geometry" />
        </mxCell>
        <mxCell id="xaEFCEjVFy6XeMojN9UT-7" value="" style="edgeStyle=orthogonalEdgeStyle;rounded=0;orthogonalLoop=1;jettySize=auto;html=1;" parent="1" source="xaEFCEjVFy6XeMojN9UT-4" target="xaEFCEjVFy6XeMojN9UT-6" edge="1">
          <mxGeometry relative="1" as="geometry" />
        </mxCell>
        <mxCell id="xaEFCEjVFy6XeMojN9UT-4" value="Store transaction in blockchain" style="rounded=0;whiteSpace=wrap;html=1;" parent="1" vertex="1">
          <mxGeometry x="480" y="340" width="120" height="60" as="geometry" />
        </mxCell>
        <mxCell id="xaEFCEjVFy6XeMojN9UT-6" value="Send money from the main address to the customers address" style="rounded=0;whiteSpace=wrap;html=1;" parent="1" vertex="1">
          <mxGeometry x="680" y="340" width="120" height="60" as="geometry" />
        </mxCell>
        <mxCell id="xaEFCEjVFy6XeMojN9UT-15" value="" style="edgeStyle=orthogonalEdgeStyle;rounded=0;orthogonalLoop=1;jettySize=auto;html=1;" parent="1" source="xaEFCEjVFy6XeMojN9UT-8" target="xaEFCEjVFy6XeMojN9UT-14" edge="1">
          <mxGeometry relative="1" as="geometry" />
        </mxCell>
        <mxCell id="xaEFCEjVFy6XeMojN9UT-8" value="Go to website" style="rounded=0;whiteSpace=wrap;html=1;" parent="1" vertex="1">
          <mxGeometry x="80" y="200" width="120" height="60" as="geometry" />
        </mxCell>
        <mxCell id="xaEFCEjVFy6XeMojN9UT-11" value="" style="edgeStyle=orthogonalEdgeStyle;rounded=0;orthogonalLoop=1;jettySize=auto;html=1;" parent="1" source="xaEFCEjVFy6XeMojN9UT-9" target="xaEFCEjVFy6XeMojN9UT-10" edge="1">
          <mxGeometry relative="1" as="geometry" />
        </mxCell>
        <mxCell id="xaEFCEjVFy6XeMojN9UT-9" value="Validation" style="rounded=0;whiteSpace=wrap;html=1;" parent="1" vertex="1">
          <mxGeometry x="80" y="560" width="120" height="60" as="geometry" />
        </mxCell>
        <mxCell id="xaEFCEjVFy6XeMojN9UT-13" value="" style="edgeStyle=orthogonalEdgeStyle;rounded=0;orthogonalLoop=1;jettySize=auto;html=1;" parent="1" source="xaEFCEjVFy6XeMojN9UT-10" target="xaEFCEjVFy6XeMojN9UT-12" edge="1">
          <mxGeometry relative="1" as="geometry" />
        </mxCell>
        <mxCell id="xaEFCEjVFy6XeMojN9UT-10" value="Platform generates validation URL" style="rounded=0;whiteSpace=wrap;html=1;" parent="1" vertex="1">
          <mxGeometry x="280" y="560" width="120" height="60" as="geometry" />
        </mxCell>
        <mxCell id="xaEFCEjVFy6XeMojN9UT-12" value="An" style="rounded=0;whiteSpace=wrap;html=1;" parent="1" vertex="1">
          <mxGeometry x="480" y="560" width="120" height="60" as="geometry" />
        </mxCell>
        <mxCell id="xaEFCEjVFy6XeMojN9UT-14" value="Ask user to connect wallet" style="rounded=0;whiteSpace=wrap;html=1;" parent="1" vertex="1">
          <mxGeometry x="280" y="200" width="120" height="60" as="geometry" />
        </mxCell>
      </root>
    </mxGraphModel>
  </diagram>
  <diagram id="bsYoipCl9t5xl7zqGwmk" name="Page-2">
    <mxGraphModel dx="2214" dy="963" grid="1" gridSize="10" guides="1" tooltips="1" connect="1" arrows="1" fold="1" page="1" pageScale="1" pageWidth="850" pageHeight="1100" math="0" shadow="0">
      <root>
        <mxCell id="0" />
        <mxCell id="1" parent="0" />
        <mxCell id="pZQjGrmSbh7cPb4ROJeQ-4" style="edgeStyle=orthogonalEdgeStyle;rounded=0;orthogonalLoop=1;jettySize=auto;html=1;entryX=0;entryY=0.5;entryDx=0;entryDy=0;" parent="1" source="pZQjGrmSbh7cPb4ROJeQ-1" target="pZQjGrmSbh7cPb4ROJeQ-3" edge="1">
          <mxGeometry relative="1" as="geometry" />
        </mxCell>
        <mxCell id="pZQjGrmSbh7cPb4ROJeQ-1" value="Frontend" style="rounded=0;whiteSpace=wrap;html=1;" parent="1" vertex="1">
          <mxGeometry x="160" y="280" width="120" height="60" as="geometry" />
        </mxCell>
        <mxCell id="pZQjGrmSbh7cPb4ROJeQ-2" value="Smart contracts" style="rounded=0;whiteSpace=wrap;html=1;" parent="1" vertex="1">
          <mxGeometry x="400" y="280" width="120" height="60" as="geometry" />
        </mxCell>
        <mxCell id="pZQjGrmSbh7cPb4ROJeQ-6" style="edgeStyle=orthogonalEdgeStyle;rounded=0;orthogonalLoop=1;jettySize=auto;html=1;entryX=0.5;entryY=0;entryDx=0;entryDy=0;" parent="1" source="pZQjGrmSbh7cPb4ROJeQ-3" target="pZQjGrmSbh7cPb4ROJeQ-2" edge="1">
          <mxGeometry relative="1" as="geometry" />
        </mxCell>
        <mxCell id="pZQjGrmSbh7cPb4ROJeQ-3" value="Backend that calls MPESA" style="rounded=0;whiteSpace=wrap;html=1;" parent="1" vertex="1">
          <mxGeometry x="280" y="100" width="120" height="60" as="geometry" />
        </mxCell>
        <mxCell id="pZQjGrmSbh7cPb4ROJeQ-15" value="" style="edgeStyle=orthogonalEdgeStyle;rounded=0;orthogonalLoop=1;jettySize=auto;html=1;" parent="1" source="pZQjGrmSbh7cPb4ROJeQ-7" target="pZQjGrmSbh7cPb4ROJeQ-14" edge="1">
          <mxGeometry relative="1" as="geometry" />
        </mxCell>
        <mxCell id="pZQjGrmSbh7cPb4ROJeQ-7" value="Paybill 1" style="rounded=0;whiteSpace=wrap;html=1;" parent="1" vertex="1">
          <mxGeometry x="200" y="750" width="120" height="60" as="geometry" />
        </mxCell>
        <mxCell id="pZQjGrmSbh7cPb4ROJeQ-8" value="Customer" style="shape=umlActor;verticalLabelPosition=bottom;verticalAlign=top;html=1;outlineConnect=0;" parent="1" vertex="1">
          <mxGeometry x="30" y="810" width="30" height="60" as="geometry" />
        </mxCell>
        <mxCell id="pZQjGrmSbh7cPb4ROJeQ-17" value="" style="edgeStyle=orthogonalEdgeStyle;rounded=0;orthogonalLoop=1;jettySize=auto;html=1;" parent="1" source="pZQjGrmSbh7cPb4ROJeQ-9" target="pZQjGrmSbh7cPb4ROJeQ-16" edge="1">
          <mxGeometry relative="1" as="geometry" />
        </mxCell>
        <mxCell id="pZQjGrmSbh7cPb4ROJeQ-9" value="Paybill 2" style="rounded=0;whiteSpace=wrap;html=1;" parent="1" vertex="1">
          <mxGeometry x="200" y="870" width="120" height="60" as="geometry" />
        </mxCell>
        <mxCell id="pZQjGrmSbh7cPb4ROJeQ-10" value="Static Paybill" style="rounded=0;whiteSpace=wrap;html=1;" parent="1" vertex="1">
          <mxGeometry x="200" y="1160" width="120" height="60" as="geometry" />
        </mxCell>
        <mxCell id="pZQjGrmSbh7cPb4ROJeQ-11" value="Customer" style="shape=umlActor;verticalLabelPosition=bottom;verticalAlign=top;html=1;outlineConnect=0;" parent="1" vertex="1">
          <mxGeometry x="30" y="1170" width="30" height="60" as="geometry" />
        </mxCell>
        <mxCell id="pZQjGrmSbh7cPb4ROJeQ-13" value="" style="endArrow=none;html=1;rounded=0;" parent="1" edge="1">
          <mxGeometry width="50" height="50" relative="1" as="geometry">
            <mxPoint x="-30" y="1010" as="sourcePoint" />
            <mxPoint x="860" y="1010" as="targetPoint" />
          </mxGeometry>
        </mxCell>
        <mxCell id="pZQjGrmSbh7cPb4ROJeQ-14" value="Company X&lt;br&gt;5%" style="rounded=0;whiteSpace=wrap;html=1;" parent="1" vertex="1">
          <mxGeometry x="400" y="750" width="120" height="60" as="geometry" />
        </mxCell>
        <mxCell id="pZQjGrmSbh7cPb4ROJeQ-16" value="Company Y&lt;br&gt;3%" style="rounded=0;whiteSpace=wrap;html=1;" parent="1" vertex="1">
          <mxGeometry x="400" y="870" width="120" height="60" as="geometry" />
        </mxCell>
      </root>
    </mxGraphModel>
  </diagram>
  <diagram id="SjBaAiKtb9xGTGXYt3SB" name="Page-3">
    <mxGraphModel dx="1364" dy="963" grid="1" gridSize="10" guides="1" tooltips="1" connect="1" arrows="1" fold="1" page="1" pageScale="1" pageWidth="850" pageHeight="1100" math="0" shadow="0">
      <root>
        <mxCell id="0" />
        <mxCell id="1" parent="0" />
        <mxCell id="n6PVObbge--Cpf6NgM14-1" value="Frontend" style="rounded=0;whiteSpace=wrap;html=1;" parent="1" vertex="1">
          <mxGeometry x="320" y="440" width="120" height="60" as="geometry" />
        </mxCell>
        <mxCell id="n6PVObbge--Cpf6NgM14-7" style="edgeStyle=orthogonalEdgeStyle;rounded=0;orthogonalLoop=1;jettySize=auto;html=1;" parent="1" source="n6PVObbge--Cpf6NgM14-2" target="n6PVObbge--Cpf6NgM14-1" edge="1">
          <mxGeometry relative="1" as="geometry" />
        </mxCell>
        <mxCell id="n6PVObbge--Cpf6NgM14-2" value="Backend Server&lt;div&gt;(FLASK)&lt;/div&gt;" style="rounded=0;whiteSpace=wrap;html=1;" parent="1" vertex="1">
          <mxGeometry x="160" y="300" width="120" height="60" as="geometry" />
        </mxCell>
        <mxCell id="n6PVObbge--Cpf6NgM14-5" style="edgeStyle=orthogonalEdgeStyle;rounded=0;orthogonalLoop=1;jettySize=auto;html=1;" parent="1" source="n6PVObbge--Cpf6NgM14-3" target="n6PVObbge--Cpf6NgM14-2" edge="1">
          <mxGeometry relative="1" as="geometry" />
        </mxCell>
        <mxCell id="n6PVObbge--Cpf6NgM14-3" value="Exchange Rate service" style="rounded=0;whiteSpace=wrap;html=1;" parent="1" vertex="1">
          <mxGeometry x="70" y="170" width="120" height="60" as="geometry" />
        </mxCell>
        <mxCell id="n6PVObbge--Cpf6NgM14-6" style="edgeStyle=orthogonalEdgeStyle;rounded=0;orthogonalLoop=1;jettySize=auto;html=1;" parent="1" source="n6PVObbge--Cpf6NgM14-4" target="n6PVObbge--Cpf6NgM14-2" edge="1">
          <mxGeometry relative="1" as="geometry" />
        </mxCell>
        <mxCell id="vBMNkCt33OsMx9RmLNdM-1" style="edgeStyle=orthogonalEdgeStyle;rounded=0;orthogonalLoop=1;jettySize=auto;html=1;" parent="1" source="n6PVObbge--Cpf6NgM14-4" target="n6PVObbge--Cpf6NgM14-8" edge="1">
          <mxGeometry relative="1" as="geometry" />
        </mxCell>
        <mxCell id="n6PVObbge--Cpf6NgM14-4" value="MPESA service" style="rounded=0;whiteSpace=wrap;html=1;" parent="1" vertex="1">
          <mxGeometry x="240" y="170" width="120" height="60" as="geometry" />
        </mxCell>
        <mxCell id="vBMNkCt33OsMx9RmLNdM-2" style="edgeStyle=orthogonalEdgeStyle;rounded=0;orthogonalLoop=1;jettySize=auto;html=1;" parent="1" source="n6PVObbge--Cpf6NgM14-8" target="n6PVObbge--Cpf6NgM14-4" edge="1">
          <mxGeometry relative="1" as="geometry" />
        </mxCell>
        <mxCell id="n6PVObbge--Cpf6NgM14-8" value="Smart contract" style="rounded=0;whiteSpace=wrap;html=1;" parent="1" vertex="1">
          <mxGeometry x="510" y="170" width="120" height="60" as="geometry" />
        </mxCell>
      </root>
    </mxGraphModel>
  </diagram>
  <diagram id="j1MJVj28SXMITlPpgtT9" name="Page-4">
    <mxGraphModel dx="1364" dy="963" grid="1" gridSize="10" guides="1" tooltips="1" connect="1" arrows="1" fold="1" page="1" pageScale="1" pageWidth="850" pageHeight="1100" math="0" shadow="0">
      <root>
        <mxCell id="0" />
        <mxCell id="1" parent="0" />
        <mxCell id="sz9zrcaLeqlniz8K6w3e-4" style="edgeStyle=orthogonalEdgeStyle;rounded=0;orthogonalLoop=1;jettySize=auto;html=1;" parent="1" source="sz9zrcaLeqlniz8K6w3e-1" target="sz9zrcaLeqlniz8K6w3e-5" edge="1">
          <mxGeometry relative="1" as="geometry">
            <mxPoint x="490" y="430" as="targetPoint" />
          </mxGeometry>
        </mxCell>
        <mxCell id="sz9zrcaLeqlniz8K6w3e-1" value="/pay&lt;div&gt;&lt;br/&gt;&lt;/div&gt;" style="rounded=0;whiteSpace=wrap;html=1;" parent="1" vertex="1">
          <mxGeometry x="190" y="400" width="120" height="60" as="geometry" />
        </mxCell>
        <mxCell id="sz9zrcaLeqlniz8K6w3e-8" style="edgeStyle=orthogonalEdgeStyle;rounded=0;orthogonalLoop=1;jettySize=auto;html=1;" parent="1" source="sz9zrcaLeqlniz8K6w3e-2" target="sz9zrcaLeqlniz8K6w3e-6" edge="1">
          <mxGeometry relative="1" as="geometry" />
        </mxCell>
        <mxCell id="sz9zrcaLeqlniz8K6w3e-2" value="" style="shape=cylinder3;whiteSpace=wrap;html=1;boundedLbl=1;backgroundOutline=1;size=15;" parent="1" vertex="1">
          <mxGeometry x="420" y="210" width="60" height="80" as="geometry" />
        </mxCell>
        <mxCell id="sz9zrcaLeqlniz8K6w3e-3" value="Unique ID&lt;div&gt;Address&lt;/div&gt;&lt;div&gt;Amount in ALGOS&lt;/div&gt;&lt;div&gt;Amoiunt in KES&lt;/div&gt;&lt;div&gt;Mobile Number&lt;/div&gt;" style="edgeStyle=orthogonalEdgeStyle;rounded=0;orthogonalLoop=1;jettySize=auto;html=1;entryX=0;entryY=0.5;entryDx=0;entryDy=0;entryPerimeter=0;" parent="1" source="sz9zrcaLeqlniz8K6w3e-1" target="sz9zrcaLeqlniz8K6w3e-2" edge="1">
          <mxGeometry relative="1" as="geometry" />
        </mxCell>
        <mxCell id="sz9zrcaLeqlniz8K6w3e-7" value="" style="edgeStyle=orthogonalEdgeStyle;rounded=0;orthogonalLoop=1;jettySize=auto;html=1;" parent="1" source="sz9zrcaLeqlniz8K6w3e-5" target="sz9zrcaLeqlniz8K6w3e-6" edge="1">
          <mxGeometry relative="1" as="geometry" />
        </mxCell>
        <mxCell id="sz9zrcaLeqlniz8K6w3e-5" value="MPESA" style="rounded=0;whiteSpace=wrap;html=1;" parent="1" vertex="1">
          <mxGeometry x="430" y="400" width="120" height="60" as="geometry" />
        </mxCell>
        <mxCell id="sz9zrcaLeqlniz8K6w3e-11" value="" style="edgeStyle=orthogonalEdgeStyle;rounded=0;orthogonalLoop=1;jettySize=auto;html=1;" parent="1" source="sz9zrcaLeqlniz8K6w3e-6" target="sz9zrcaLeqlniz8K6w3e-10" edge="1">
          <mxGeometry relative="1" as="geometry" />
        </mxCell>
        <mxCell id="sz9zrcaLeqlniz8K6w3e-6" value="/callback" style="rounded=0;whiteSpace=wrap;html=1;" parent="1" vertex="1">
          <mxGeometry x="630" y="400" width="120" height="60" as="geometry" />
        </mxCell>
        <mxCell id="sz9zrcaLeqlniz8K6w3e-10" value="Call the smart contract" style="rounded=0;whiteSpace=wrap;html=1;" parent="1" vertex="1">
          <mxGeometry x="830" y="400" width="120" height="60" as="geometry" />
        </mxCell>
        <mxCell id="NiaRztFY-unfyz6D4Rip-1" value="Cahnges" style="text;html=1;align=center;verticalAlign=middle;resizable=0;points=[];autosize=1;strokeColor=none;fillColor=none;" vertex="1" parent="1">
          <mxGeometry x="395" y="588" width="70" height="30" as="geometry" />
        </mxCell>
      </root>
    </mxGraphModel>
  </diagram>
</mxfile>
